<svg width="16" height="16" viewBox="0 0 16 16" fill="none" xmlns="http://www.w3.org/2000/svg">
<path d="M2.83237 0.439949C2.24658 -0.145837 1.29684 -0.145837 0.711051 0.439949C0.125264 1.02574 0.125264 1.97548 0.711051 2.56127L6.01393 7.86415L0.710824 13.1673C0.125038 13.753 0.125038 14.7028 0.710824 15.2886C1.29661 15.8744 2.24636 15.8744 2.83214 15.2886L8.13525 9.98547L13.439 15.2892C14.0248 15.875 14.9745 15.875 15.5603 15.2892C16.1461 14.7034 16.1461 13.7537 15.5603 13.1679L10.2566 7.86415L15.5601 2.56066C16.1459 1.97487 16.1459 1.02513 15.5601 0.43934C14.9743 -0.146447 14.0245 -0.146446 13.4387 0.43934L8.13525 5.74283L2.83237 0.439949Z" fill="white"/>
</svg>
